<?xml version="1.0" encoding="UTF-8" standalone="no"?>
<!-- Created with Inkscape (http://www.inkscape.org/) -->

<svg
   width="99.764473mm"
   height="99.764473mm"
   viewBox="0 0 99.764473 99.764473"
   version="1.1"
   id="svg1"
   xml:space="preserve"
   inkscape:version="1.3.1 (91b66b0783, 2023-11-16)"
   sodipodi:docname="avatar.svg"
   xmlns:inkscape="http://www.inkscape.org/namespaces/inkscape"
   xmlns:sodipodi="http://sodipodi.sourceforge.net/DTD/sodipodi-0.dtd"
   xmlns="http://www.w3.org/2000/svg"
   xmlns:svg="http://www.w3.org/2000/svg"><sodipodi:namedview
     id="namedview1"
     pagecolor="#ffffff"
     bordercolor="#000000"
     borderopacity="0.25"
     inkscape:showpageshadow="2"
     inkscape:pageopacity="0.0"
     inkscape:pagecheckerboard="0"
     inkscape:deskcolor="#d1d1d1"
     inkscape:document-units="mm"
     inkscape:zoom="0.69219276"
     inkscape:cx="252.81975"
     inkscape:cy="10.835132"
     inkscape:window-width="1920"
     inkscape:window-height="991"
     inkscape:window-x="-9"
     inkscape:window-y="-9"
     inkscape:window-maximized="1"
     inkscape:current-layer="layer1" /><defs
     id="defs1" /><g
     inkscape:label="Ebene 1"
     inkscape:groupmode="layer"
     id="layer1"
     transform="translate(-37.841709,-145.63321)"><circle
       style="fill:#0f9ece;stroke-width:1.05668;stroke-linejoin:round;fill-opacity:1"
       id="path1"
       cx="87.723946"
       cy="195.51544"
       r="49.882236" /><circle
       style="fill:#ffffff;stroke-width:1.0736;stroke-linejoin:round"
       id="path2"
       cx="87.723946"
       cy="185.69896"
       r="12.926762" /><path
       d="m 100.15007,199.35954 c -0.41117,0.46302 -0.8479,0.90648 -1.31321,1.32486 -3.042793,2.76389 -7.001962,4.3021 -11.112638,4.31745 -4.089451,-0.0142 -8.030219,-1.53552 -11.068247,-4.27307 -0.468177,-0.41794 -0.907667,-0.8613 -1.321541,-1.3243 a 20.929044,20.108296 0 0 0 -8.539472,16.04647 20.929044,20.108296 0 0 0 0.175309,1.92516 h 41.507349 a 20.929044,20.108296 0 0 0 0.17531,-1.92516 20.929044,20.108296 0 0 0 -8.50286,-16.09141 z"
       style="fill:#ffffff;stroke-width:1.0736;stroke-linejoin:round"
       id="path8" /></g></svg>
