<?xml version="1.0" standalone="no"?>
<!DOCTYPE svg PUBLIC "-//W3C//DTD SVG 20010904//EN"
 "http://www.w3.org/TR/2001/REC-SVG-20010904/DTD/svg10.dtd">
<svg version="1.0" xmlns="http://www.w3.org/2000/svg"
 width="1512.000000pt" height="1512.000000pt" viewBox="0 0 1512.000000 1512.000000"
 preserveAspectRatio="xMidYMid meet">
<metadata>
Created by potrace 1.14, written by Peter Selinger 2001-2017
</metadata>
<g transform="translate(0.000000,1512.000000) scale(0.100000,-0.100000)"
fill="#000000" stroke="none">
<path d="M11330 13359 c0 -6 -7 -9 -15 -6 -8 4 -17 2 -21 -4 -3 -6 -12 -8 -20
-5 -8 3 -14 1 -14 -4 0 -6 -9 -10 -19 -10 -11 0 -22 -4 -26 -10 -3 -5 -12 -7
-20 -3 -8 3 -15 0 -15 -7 0 -7 -8 -9 -20 -5 -11 4 -20 2 -20 -4 0 -6 -7 -8
-15 -5 -8 4 -15 1 -15 -6 0 -7 -8 -9 -20 -5 -12 4 -20 2 -20 -5 0 -7 -7 -10
-15 -7 -8 4 -17 2 -20 -3 -4 -6 -15 -10 -26 -10 -10 0 -19 -4 -19 -10 0 -5 -6
-7 -14 -4 -8 3 -17 1 -20 -5 -4 -6 -13 -8 -21 -4 -8 3 -15 0 -15 -7 0 -7 -8
-9 -20 -5 -12 4 -20 2 -20 -5 0 -6 -6 -10 -12 -9 -7 1 -26 -4 -43 -11 -16 -7
-36 -12 -42 -11 -7 1 -13 -3 -13 -9 0 -7 -8 -9 -20 -5 -12 4 -20 2 -20 -5 0
-7 -7 -10 -15 -7 -8 4 -17 2 -20 -3 -3 -5 -12 -7 -20 -3 -8 3 -15 0 -15 -7 0
-7 -7 -10 -15 -7 -8 4 -17 2 -20 -3 -4 -6 -15 -10 -26 -10 -10 0 -19 -4 -19
-10 0 -5 -6 -7 -14 -4 -8 3 -17 1 -20 -5 -4 -6 -13 -8 -21 -4 -8 3 -15 0 -15
-7 0 -7 -8 -9 -20 -5 -12 4 -20 2 -20 -5 0 -6 -6 -10 -12 -9 -7 1 -26 -4 -43
-11 -16 -7 -35 -12 -42 -11 -6 1 -14 -3 -18 -8 -3 -6 -12 -8 -20 -4 -8 3 -15
0 -15 -7 0 -7 -8 -9 -20 -5 -11 4 -20 2 -20 -4 0 -6 -7 -8 -15 -5 -8 4 -15 1
-15 -6 0 -7 -7 -10 -15 -7 -8 4 -17 2 -21 -4 -3 -6 -12 -8 -20 -5 -7 3 -16 1
-19 -4 -4 -6 -15 -10 -26 -10 -10 0 -19 -4 -19 -10 0 -5 -7 -7 -15 -4 -8 4
-15 1 -15 -6 0 -7 -8 -9 -20 -5 -12 4 -20 2 -20 -5 0 -7 -7 -10 -15 -7 -8 4
-17 2 -20 -4 -4 -5 -12 -9 -18 -8 -7 1 -25 -4 -42 -11 -16 -7 -36 -12 -42 -11
-7 1 -13 -3 -13 -9 0 -7 -8 -9 -20 -5 -12 4 -20 2 -20 -5 0 -7 -7 -10 -15 -7
-8 4 -17 2 -20 -3 -3 -5 -12 -7 -20 -3 -8 3 -15 0 -15 -7 0 -7 -7 -10 -15 -7
-8 4 -17 2 -20 -3 -4 -6 -15 -10 -26 -10 -10 0 -19 -4 -19 -10 0 -5 -6 -7 -14
-4 -8 3 -17 1 -20 -5 -4 -6 -13 -8 -21 -4 -8 3 -15 0 -15 -7 0 -7 -8 -9 -20
-5 -12 4 -20 2 -20 -5 0 -6 -6 -10 -12 -9 -7 1 -26 -4 -43 -11 -16 -7 -36 -12
-42 -11 -7 1 -13 -3 -13 -9 0 -7 -8 -9 -20 -5 -12 4 -20 2 -20 -5 0 -7 -7 -10
-15 -7 -8 4 -17 2 -21 -4 -3 -6 -12 -8 -20 -5 -8 3 -14 1 -14 -3 0 -5 -18 -12
-40 -16 -22 -4 -40 -10 -40 -15 0 -4 -9 -6 -20 -3 -11 3 -20 0 -20 -6 0 -5 -7
-8 -15 -5 -8 4 -15 1 -15 -6 0 -7 -8 -9 -20 -5 -12 4 -20 2 -20 -5 0 -6 -6
-10 -12 -9 -7 1 -26 -4 -43 -11 -16 -7 -36 -12 -42 -11 -7 1 -13 -3 -13 -9 0
-7 -8 -9 -20 -5 -12 4 -20 2 -20 -5 0 -7 -8 -9 -20 -5 -12 4 -20 2 -20 -5 0
-7 -7 -10 -15 -6 -8 3 -15 1 -15 -3 0 -5 -18 -12 -40 -16 -22 -4 -40 -10 -40
-15 0 -4 -9 -6 -20 -3 -11 3 -20 0 -20 -6 0 -5 -7 -8 -15 -5 -8 4 -15 1 -15
-6 0 -7 -8 -9 -20 -5 -12 4 -20 2 -20 -5 0 -7 -7 -10 -15 -7 -8 4 -17 2 -20
-3 -4 -6 -15 -10 -26 -10 -10 0 -19 -4 -19 -10 0 -5 -6 -7 -14 -4 -8 3 -17 1
-20 -5 -4 -6 -13 -8 -21 -4 -8 3 -15 0 -15 -7 0 -7 -8 -9 -20 -5 -12 4 -20 2
-20 -5 0 -6 -6 -10 -12 -9 -7 1 -26 -4 -43 -11 -16 -7 -35 -12 -42 -11 -6 1
-14 -3 -18 -8 -3 -6 -12 -8 -20 -4 -8 3 -15 0 -15 -6 0 -6 -6 -8 -14 -5 -8 3
-17 1 -20 -5 -4 -6 -13 -8 -21 -4 -8 3 -15 0 -15 -7 0 -7 -7 -10 -15 -7 -8 4
-17 2 -20 -4 -4 -5 -12 -9 -18 -8 -7 1 -25 -4 -42 -11 -16 -7 -36 -12 -42 -11
-7 1 -13 -3 -13 -9 0 -7 -8 -9 -20 -5 -12 4 -20 2 -20 -5 0 -7 -7 -10 -15 -7
-8 4 -17 2 -21 -4 -3 -6 -12 -8 -20 -5 -8 3 -14 1 -14 -4 0 -6 -9 -10 -19 -10
-11 0 -22 -4 -26 -10 -3 -5 -12 -7 -20 -3 -8 3 -15 0 -15 -7 0 -7 -8 -9 -20
-5 -11 4 -20 2 -20 -4 0 -6 -7 -8 -15 -5 -8 4 -15 1 -15 -6 0 -7 -8 -9 -20 -5
-12 4 -20 2 -20 -5 0 -7 -7 -10 -15 -7 -8 4 -17 2 -20 -3 -4 -6 -15 -10 -26
-10 -10 0 -19 -4 -19 -10 0 -5 -7 -7 -15 -4 -8 4 -15 1 -15 -6 0 -7 -8 -9 -20
-5 -12 4 -20 2 -20 -5 0 -7 -7 -10 -15 -7 -8 4 -17 2 -21 -4 -3 -6 -12 -8 -20
-5 -8 3 -14 1 -14 -4 0 -6 -9 -10 -19 -10 -11 0 -22 -4 -26 -10 -3 -5 -12 -7
-20 -3 -8 3 -15 0 -15 -7 0 -7 -8 -9 -20 -5 -11 4 -20 2 -20 -4 0 -6 -7 -8
-15 -5 -8 4 -15 1 -15 -6 0 -7 -8 -9 -20 -5 -12 4 -20 2 -20 -5 0 -7 -7 -10
-15 -7 -8 4 -17 2 -20 -3 -4 -6 -15 -10 -26 -10 -10 0 -19 -4 -19 -10 0 -5 -6
-7 -14 -4 -8 3 -17 1 -20 -5 -4 -6 -13 -8 -21 -4 -8 3 -15 0 -15 -7 0 -7 -8
-9 -20 -5 -12 4 -20 2 -20 -5 0 -6 -6 -10 -12 -9 -7 1 -26 -4 -43 -11 -16 -7
-36 -12 -42 -11 -7 1 -13 -3 -13 -9 0 -7 -8 -9 -20 -5 -12 4 -20 2 -20 -5 0
-7 -7 -10 -15 -7 -8 4 -17 2 -20 -3 -3 -5 -12 -7 -20 -3 -8 3 -15 0 -15 -7 0
-7 -7 -10 -15 -7 -8 4 -17 2 -20 -3 -4 -6 -15 -10 -26 -10 -10 0 -19 -4 -19
-10 0 -5 -6 -7 -14 -4 -8 3 -17 1 -20 -5 -4 -6 -13 -8 -21 -4 -8 3 -15 0 -15
-7 0 -7 -8 -9 -20 -5 -12 4 -20 2 -20 -5 0 -6 -6 -10 -12 -9 -7 1 -26 -4 -43
-11 -16 -7 -35 -12 -42 -11 -6 1 -14 -3 -18 -8 -3 -6 -12 -8 -20 -4 -8 3 -15
0 -15 -7 0 -7 -8 -9 -20 -5 -12 4 -20 2 -20 -5 0 -7 -7 -10 -15 -6 -8 3 -15 1
-15 -5 0 -6 -7 -9 -15 -6 -8 4 -17 2 -20 -3 -3 -4 -23 -11 -45 -15 -22 -4 -40
-11 -40 -16 0 -4 -7 -6 -15 -3 -8 4 -15 1 -15 -6 0 -7 -8 -9 -20 -5 -12 4 -20
2 -20 -5 0 -7 -7 -10 -15 -7 -8 4 -17 2 -20 -4 -4 -5 -12 -9 -18 -8 -7 1 -25
-4 -42 -11 -16 -7 -36 -12 -42 -11 -7 1 -13 -3 -13 -9 0 -7 -8 -9 -20 -5 -12
4 -20 2 -20 -5 0 -7 -7 -10 -15 -7 -8 4 -17 2 -21 -4 -3 -6 -12 -8 -20 -5 -8
3 -14 1 -14 -3 0 -5 -18 -12 -40 -16 -22 -4 -40 -11 -40 -16 0 -4 -6 -6 -14
-3 -8 3 -17 1 -20 -5 -4 -6 -13 -8 -21 -4 -8 3 -15 0 -15 -7 0 -7 -8 -9 -20
-5 -12 4 -20 2 -20 -5 0 -6 -6 -10 -12 -9 -7 1 -26 -4 -43 -11 -16 -7 -36 -12
-42 -11 -7 1 -13 -3 -13 -9 0 -7 -8 -9 -20 -5 -12 4 -20 2 -20 -5 0 -7 -7 -10
-15 -7 -8 4 -17 2 -21 -4 -3 -6 -12 -8 -20 -5 -8 3 -14 1 -14 -3 0 -5 -18 -12
-40 -16 -22 -4 -40 -11 -40 -16 0 -4 -6 -6 -14 -3 -8 3 -17 1 -20 -5 -4 -6
-13 -8 -21 -4 -8 3 -15 0 -15 -7 0 -7 -8 -9 -20 -5 -12 4 -20 2 -20 -5 0 -6
-6 -10 -12 -9 -7 1 -26 -4 -43 -11 -16 -7 -36 -12 -42 -11 -7 1 -13 -3 -13 -9
0 -7 -8 -9 -20 -5 -12 4 -20 2 -20 -5 0 -7 -7 -10 -15 -7 -8 4 -17 2 -21 -4
-3 -6 -12 -8 -20 -5 -8 3 -14 1 -14 -4 0 -6 -9 -10 -19 -10 -11 0 -22 -4 -26
-10 -3 -5 -12 -7 -20 -3 -8 3 -15 1 -15 -5 0 -6 -9 -8 -20 -5 -11 3 -20 0 -20
-6 0 -5 -7 -8 -15 -5 -8 4 -15 1 -15 -6 0 -7 -8 -9 -20 -5 -12 4 -20 2 -20 -5
0 -7 -7 -10 -15 -7 -8 4 -17 2 -20 -3 -4 -6 -15 -10 -26 -10 -10 0 -19 -4 -19
-10 0 -5 -6 -7 -14 -4 -8 3 -17 1 -20 -5 -4 -6 -13 -8 -21 -4 -8 3 -15 1 -15
-5 0 -5 -11 -9 -24 -8 -13 0 -22 6 -19 12 2 6 -3 14 -12 18 -9 3 -14 10 -11
15 3 5 -1 12 -10 15 -8 3 -12 10 -9 16 3 6 0 13 -9 16 -8 3 -12 12 -9 20 3 9
-1 14 -12 14 -11 0 -15 5 -11 15 3 9 -1 18 -9 21 -8 4 -12 10 -9 15 3 5 -2 12
-10 15 -9 3 -16 12 -16 20 0 8 -5 14 -11 14 -6 0 -8 7 -5 15 3 9 -1 18 -9 21
-8 4 -12 10 -9 15 3 5 -2 12 -10 15 -9 3 -16 12 -16 20 0 8 -4 14 -10 14 -5 0
-10 9 -10 20 0 11 -4 20 -10 20 -5 0 -10 7 -10 15 0 8 -4 15 -10 15 -5 0 -10
7 -10 15 0 8 -4 15 -10 15 -5 0 -10 9 -10 20 0 11 -4 20 -10 20 -5 0 -10 7
-10 15 0 8 -4 15 -10 15 -5 0 -10 7 -10 15 0 8 -4 15 -10 15 -5 0 -10 9 -10
20 0 11 -4 20 -10 20 -5 0 -10 7 -10 15 0 8 -4 15 -10 15 -5 0 -10 7 -10 15 0
8 -4 15 -10 15 -5 0 -10 9 -10 20 0 11 -4 20 -10 20 -5 0 -10 7 -10 15 0 8 -4
15 -10 15 -5 0 -10 6 -10 14 0 8 -7 17 -16 20 -8 3 -12 10 -9 16 3 6 0 13 -9
16 -8 3 -13 11 -10 19 3 7 -2 15 -11 19 -9 3 -14 10 -11 15 3 5 -1 12 -10 15
-8 3 -12 10 -9 16 3 6 0 13 -9 16 -8 3 -12 12 -9 20 3 9 -1 14 -12 14 -11 0
-15 5 -12 14 3 8 -1 17 -9 20 -9 3 -12 10 -9 16 3 6 -1 13 -9 16 -9 3 -16 12
-16 20 0 8 -5 14 -11 14 -6 0 -8 7 -5 15 3 9 -1 18 -9 21 -8 4 -12 10 -9 15 3
5 -2 12 -10 15 -9 3 -16 12 -16 20 0 8 -4 14 -10 14 -5 0 -10 9 -10 21 0 11
-4 17 -10 14 -5 -3 -10 3 -10 14 0 12 -4 21 -10 21 -5 0 -10 7 -10 15 0 8 -4
15 -10 15 -5 0 -10 9 -10 21 0 11 -4 17 -10 14 -5 -3 -10 3 -10 14 0 12 -4 21
-10 21 -5 0 -10 7 -10 15 0 8 -4 15 -10 15 -5 0 -10 7 -10 15 0 8 -4 15 -10
15 -5 0 -10 9 -10 20 0 11 -4 20 -10 20 -5 0 -10 7 -10 15 0 8 -4 15 -10 15
-5 0 -10 7 -10 15 0 9 -6 18 -14 21 -8 3 -12 12 -9 20 3 8 0 14 -6 14 -6 0
-11 6 -11 14 0 8 -7 17 -16 20 -8 3 -12 10 -9 16 3 6 0 13 -9 16 -8 3 -12 12
-9 20 3 8 -1 14 -11 14 -9 0 -13 6 -10 14 3 7 -2 16 -11 20 -9 3 -13 10 -10
16 3 6 -1 13 -9 16 -9 3 -13 10 -10 15 3 5 -2 12 -11 15 -9 4 -14 13 -11 20 3
8 -1 14 -10 14 -10 0 -14 6 -10 15 3 9 -1 18 -9 21 -8 4 -12 10 -9 15 3 5 -2
12 -10 15 -9 3 -16 12 -16 20 0 8 -5 14 -11 14 -6 0 -9 6 -6 13 3 7 0 20 -7
29 -9 12 -11 -86 -11 -416 1 -237 -3 -436 -7 -443 -5 -6 -4 -14 2 -18 8 -5 8
-10 0 -20 -8 -10 -8 -15 0 -20 8 -5 8 -10 0 -20 -8 -10 -8 -15 0 -20 8 -5 8
-10 0 -20 -8 -10 -8 -15 0 -20 8 -5 8 -10 0 -20 -8 -10 -8 -15 0 -20 8 -5 8
-10 0 -20 -8 -10 -8 -15 1 -20 8 -6 8 -10 -2 -15 -10 -7 -10 -12 0 -23 9 -12
9 -16 -1 -19 -10 -4 -10 -8 1 -21 7 -10 10 -17 5 -17 -5 0 -9 -192 -9 -431 0
-237 -4 -433 -9 -436 -4 -3 -2 -9 5 -13 10 -7 10 -12 0 -23 -9 -12 -9 -16 1
-20 10 -4 10 -8 -2 -16 -13 -10 -13 -12 0 -21 13 -9 13 -11 0 -20 -13 -9 -13
-11 0 -20 13 -9 13 -11 0 -21 -12 -8 -12 -12 -2 -16 10 -4 10 -8 0 -21 -11
-12 -11 -16 0 -20 10 -3 10 -7 0 -20 -11 -12 -11 -16 0 -20 10 -3 10 -7 1 -19
-10 -11 -10 -16 0 -23 7 -4 9 -10 5 -13 -5 -3 -9 -199 -9 -436 0 -239 -4 -431
-9 -431 -5 0 -3 -6 3 -14 9 -10 9 -16 1 -21 -8 -5 -8 -10 0 -20 8 -10 8 -15 0
-20 -8 -5 -8 -10 0 -20 8 -10 8 -15 0 -20 -8 -5 -8 -10 0 -20 8 -10 8 -15 0
-20 -8 -5 -8 -10 0 -20 8 -10 8 -15 0 -20 -8 -5 -8 -10 0 -20 8 -10 8 -15 0
-20 -8 -5 -8 -10 0 -20 8 -10 7 -14 -2 -17 -10 -4 -10 -8 1 -21 7 -10 10 -17
5 -17 -5 0 -9 -192 -9 -431 0 -237 -4 -433 -8 -436 -4 -3 -3 -11 3 -18 8 -10
8 -15 0 -20 -8 -5 -8 -10 0 -20 8 -10 8 -15 -1 -20 -8 -6 -7 -10 2 -16 12 -8
11 -11 -1 -19 -13 -9 -13 -11 0 -20 13 -9 13 -11 0 -20 -13 -9 -13 -11 0 -20
13 -9 13 -11 0 -21 -12 -8 -12 -12 -2 -16 10 -4 10 -8 0 -21 -11 -12 -11 -16
0 -20 10 -3 10 -7 0 -20 -11 -12 -11 -16 0 -20 10 -3 10 -7 1 -19 -10 -11 -10
-16 0 -23 7 -4 9 -10 5 -13 -5 -3 -9 -190 -9 -416 0 -227 -4 -411 -9 -411 -5
0 -3 -7 5 -16 10 -13 10 -17 0 -24 -10 -5 -10 -9 -2 -15 9 -5 9 -10 1 -20 -8
-10 -8 -15 0 -20 8 -5 8 -10 0 -20 -8 -10 -8 -15 0 -20 8 -5 8 -10 0 -20 -8
-10 -8 -15 0 -20 8 -5 8 -10 0 -20 -8 -10 -8 -15 0 -20 8 -5 8 -10 0 -20 -8
-10 -8 -15 0 -20 8 -5 8 -10 0 -20 -8 -10 -8 -15 1 -20 8 -6 8 -10 -2 -15 -10
-7 -10 -11 0 -24 8 -9 9 -16 5 -16 -5 0 -9 -152 -9 -347 0 -359 -2 -381 -39
-367 -9 3 -16 1 -16 -6 0 -7 -8 -9 -20 -5 -12 4 -20 2 -20 -5 0 -7 -8 -9 -20
-5 -11 4 -20 2 -20 -4 0 -6 -6 -8 -14 -5 -8 3 -17 0 -21 -5 -3 -6 -11 -9 -16
-6 -5 4 -15 3 -21 -2 -7 -4 -24 -8 -38 -8 -14 0 -31 -4 -37 -8 -7 -5 -17 -6
-22 -2 -5 3 -13 0 -16 -6 -4 -5 -13 -8 -21 -5 -7 3 -16 1 -19 -4 -3 -5 -12 -7
-20 -3 -8 3 -15 0 -15 -7 0 -7 -8 -9 -20 -5 -12 4 -20 2 -20 -5 0 -7 -8 -9
-20 -5 -12 4 -20 2 -20 -5 0 -7 -8 -9 -20 -5 -11 3 -20 2 -20 -3 0 -6 -9 -8
-20 -5 -11 3 -20 0 -20 -6 0 -5 -6 -8 -14 -5 -8 3 -17 0 -21 -5 -3 -6 -11 -9
-16 -6 -5 4 -15 3 -21 -2 -7 -4 -24 -8 -38 -8 -14 0 -31 -4 -37 -8 -7 -5 -17
-6 -22 -2 -5 3 -13 0 -16 -6 -4 -5 -13 -8 -21 -5 -8 3 -14 1 -14 -5 0 -6 -9
-8 -20 -4 -12 4 -20 2 -20 -5 0 -7 -8 -9 -20 -5 -12 4 -20 2 -20 -5 0 -7 -8
-9 -20 -5 -12 4 -20 2 -20 -5 0 -7 -8 -9 -20 -5 -11 4 -20 2 -20 -4 0 -6 -6
-8 -14 -5 -8 3 -17 1 -20 -5 -4 -6 -13 -8 -20 -5 -8 3 -17 0 -21 -5 -3 -6 -11
-9 -16 -6 -5 4 -15 3 -21 -2 -7 -4 -24 -8 -38 -8 -14 0 -31 -4 -37 -8 -7 -5
-17 -6 -22 -2 -5 3 -13 0 -16 -6 -4 -5 -13 -8 -21 -5 -8 3 -14 1 -14 -5 0 -6
-9 -8 -20 -4 -12 4 -20 2 -20 -5 0 -7 -8 -9 -20 -5 -12 4 -20 2 -20 -5 0 -7
-8 -9 -20 -5 -12 4 -20 2 -20 -5 0 -7 -8 -9 -20 -5 -11 4 -20 2 -20 -4 0 -6
-6 -8 -14 -5 -8 3 -17 1 -20 -5 -4 -6 -13 -8 -20 -5 -8 3 -17 0 -21 -5 -3 -6
-11 -9 -16 -6 -5 4 -14 3 -21 -1 -7 -4 -22 -9 -35 -11 -13 -2 -33 -4 -46 -6
-13 -2 -28 -7 -35 -11 -7 -4 -17 -4 -22 -1 -5 3 -10 1 -10 -5 0 -7 -8 -9 -20
-5 -12 4 -20 2 -20 -5 0 -7 -8 -9 -20 -5 -12 4 -20 2 -20 -5 0 -7 -8 -9 -20
-5 -12 4 -20 2 -20 -5 0 -7 -7 -10 -15 -7 -8 4 -17 2 -20 -3 -3 -5 -12 -7 -19
-4 -8 3 -17 1 -20 -5 -4 -6 -13 -8 -21 -4 -8 3 -15 0 -15 -7 0 -7 -8 -9 -20
-5 -12 4 -20 2 -20 -5 0 -6 -5 -8 -10 -5 -6 4 -35 -1 -65 -10 -31 -9 -60 -13
-65 -10 -6 3 -10 1 -10 -5 0 -7 -8 -9 -19 -5 -10 3 -24 -1 -31 -10 -10 -13 -9
-15 8 -15 12 0 23 -4 27 -10 3 -5 12 -7 20 -3 8 3 15 0 15 -7 0 -7 8 -9 20 -5
12 4 20 2 20 -5 0 -7 7 -10 15 -6 8 3 15 1 15 -4 0 -6 9 -10 19 -10 11 0 22
-4 26 -10 3 -5 12 -7 20 -3 8 3 15 0 15 -7 0 -7 7 -10 15 -7 8 4 17 2 21 -4 3
-6 12 -8 20 -5 8 3 14 1 14 -4 0 -6 9 -10 19 -10 11 0 22 -4 26 -10 3 -5 12
-7 20 -3 8 3 15 0 15 -7 0 -7 7 -10 15 -6 8 3 15 1 15 -5 0 -6 9 -8 20 -4 12
4 20 2 20 -5 0 -7 7 -10 15 -7 8 4 17 2 20 -3 4 -6 15 -10 26 -10 10 0 19 -4
19 -10 0 -5 7 -7 15 -4 8 4 15 1 15 -6 0 -7 8 -9 20 -5 12 4 20 2 20 -5 0 -6
6 -10 12 -9 7 1 27 -4 43 -11 17 -7 36 -12 42 -11 7 1 13 -3 13 -9 0 -7 8 -9
20 -5 12 4 20 2 20 -5 0 -6 6 -10 12 -9 7 1 27 -4 43 -11 17 -7 36 -12 43 -11
6 1 12 -3 12 -9 0 -7 8 -9 20 -5 12 4 20 2 20 -5 0 -7 7 -10 15 -6 8 3 15 1
15 -4 0 -6 9 -10 19 -10 11 0 22 -4 26 -10 3 -5 12 -7 20 -3 8 3 15 0 15 -7 0
-7 7 -10 15 -7 8 4 17 2 21 -4 3 -6 12 -8 20 -5 8 3 14 1 14 -4 0 -6 9 -10 19
-10 11 0 22 -4 26 -10 3 -5 12 -7 20 -3 8 3 15 0 15 -7 0 -7 7 -10 15 -6 8 3
15 0 15 -5 0 -6 9 -9 20 -6 11 3 20 1 20 -4 0 -5 9 -9 19 -9 11 0 22 -4 26
-10 3 -5 12 -7 20 -3 8 3 15 0 15 -7 0 -7 7 -10 15 -6 8 3 15 1 15 -5 0 -6 9
-8 20 -4 11 4 20 2 20 -4 0 -6 6 -11 14 -11 8 0 27 -5 43 -12 15 -6 34 -10 41
-9 6 1 12 -3 12 -9 0 -7 8 -9 20 -5 12 4 20 2 20 -5 0 -6 6 -10 13 -9 6 1 26
-4 42 -11 17 -7 36 -12 43 -11 6 1 12 -3 12 -9 0 -7 8 -9 20 -5 12 4 20 2 20
-5 0 -7 6 -10 14 -7 8 3 17 -1 20 -8 3 -8 12 -12 20 -9 8 3 17 1 20 -5 4 -6
13 -8 21 -4 8 3 15 0 15 -7 0 -7 7 -10 15 -7 8 4 17 2 21 -4 3 -6 12 -8 19 -5
7 2 16 -2 19 -9 3 -8 12 -12 21 -9 8 3 15 1 15 -6 0 -7 8 -9 20 -5 12 4 20 2
20 -5 0 -7 7 -10 15 -6 8 3 15 1 15 -4 0 -6 9 -10 19 -10 11 0 22 -4 26 -10 3
-5 12 -7 20 -3 8 3 15 0 15 -7 0 -7 8 -9 20 -5 12 4 20 2 20 -5 0 -7 7 -10 15
-6 8 3 15 1 15 -3 0 -5 18 -12 40 -16 22 -4 40 -11 40 -17 0 -6 7 -8 15 -5 8
4 17 2 20 -3 3 -5 12 -7 20 -3 8 3 15 0 15 -7 0 -7 7 -10 15 -7 8 4 17 2 20
-3 4 -6 15 -10 26 -10 10 0 19 -4 19 -10 0 -5 6 -7 14 -4 8 3 17 1 20 -5 4 -6
13 -8 21 -4 8 3 15 0 15 -7 0 -7 7 -10 15 -7 8 4 17 2 20 -3 4 -6 15 -10 26
-10 10 0 19 -4 19 -10 0 -5 7 -7 15 -4 8 4 15 1 15 -6 0 -7 8 -9 20 -5 12 4
20 2 20 -5 0 -6 6 -10 13 -9 6 1 26 -4 42 -11 17 -7 36 -12 43 -11 6 1 12 -3
12 -9 0 -7 8 -9 20 -5 12 4 20 2 20 -5 0 -6 6 -10 13 -9 6 1 26 -4 42 -11 17
-7 36 -12 43 -11 6 1 12 -3 12 -9 0 -7 8 -9 20 -5 12 4 20 2 20 -5 0 -7 7 -10
15 -6 8 3 15 1 15 -4 0 -6 9 -10 19 -10 11 0 22 -4 26 -10 3 -5 12 -7 20 -3 8
3 15 0 15 -7 0 -7 7 -10 15 -7 8 4 17 2 21 -4 3 -6 12 -8 20 -5 8 3 14 1 14
-3 0 -5 18 -12 40 -16 22 -4 40 -11 40 -16 0 -4 6 -6 14 -3 8 3 17 1 20 -5 4
-6 13 -8 21 -4 8 3 15 0 15 -7 0 -7 7 -10 15 -7 8 4 17 2 20 -3 4 -6 15 -10
26 -10 10 0 19 -4 19 -10 0 -5 7 -7 15 -4 8 4 15 1 15 -6 0 -7 8 -9 20 -5 12
4 20 2 20 -5 0 -6 6 -10 13 -9 6 1 26 -4 42 -11 17 -7 36 -12 43 -11 6 1 12
-3 12 -9 0 -7 8 -9 20 -5 12 4 20 2 20 -5 0 -6 6 -10 13 -9 6 1 26 -4 42 -11
17 -7 36 -12 43 -11 6 1 12 -3 12 -9 0 -7 8 -9 20 -5 12 4 20 2 20 -5 0 -7 7
-10 15 -6 8 3 15 1 15 -4 0 -6 9 -10 19 -10 11 0 22 -4 26 -10 3 -5 12 -7 20
-3 8 3 15 0 15 -7 0 -7 8 -9 20 -5 12 4 20 2 20 -5 0 -7 7 -10 15 -6 8 3 15 1
15 -4 0 -6 9 -10 19 -10 11 0 22 -4 26 -10 3 -5 12 -7 20 -3 8 3 15 0 15 -7 0
-7 7 -10 15 -7 8 4 17 2 21 -4 3 -6 12 -8 20 -5 8 3 14 1 14 -3 0 -5 18 -12
40 -16 22 -4 40 -11 40 -16 0 -4 7 -6 15 -3 8 4 15 1 15 -6 0 -7 8 -9 20 -5
12 4 20 2 20 -5 0 -6 6 -10 13 -9 6 1 26 -4 42 -11 17 -7 36 -12 43 -11 6 1
12 -3 12 -9 0 -7 8 -9 20 -5 12 4 20 2 20 -5 0 -6 6 -10 13 -9 6 1 26 -4 42
-11 17 -7 36 -12 43 -11 6 1 12 -3 12 -9 0 -7 8 -9 20 -5 12 4 20 2 20 -5 0
-7 7 -10 15 -6 8 3 15 1 15 -4 0 -6 9 -10 19 -10 11 0 22 -4 26 -10 3 -5 12
-7 20 -3 8 3 15 0 15 -7 0 -7 8 -9 20 -5 12 4 20 2 20 -5 0 -7 7 -10 15 -6 8
3 15 1 15 -4 0 -6 9 -10 19 -10 11 0 22 -4 26 -10 3 -5 12 -7 20 -3 8 3 15 0
15 -7 0 -7 7 -10 15 -7 8 4 17 2 21 -4 3 -6 12 -8 20 -5 8 3 14 1 14 -4 0 -6
9 -10 19 -10 11 0 22 -4 26 -10 3 -5 12 -7 20 -3 8 3 15 0 15 -7 0 -7 7 -10
15 -6 8 3 15 0 15 -5 0 -6 9 -9 20 -6 11 3 20 1 20 -4 0 -5 6 -9 14 -9 8 0 27
-5 43 -12 15 -6 34 -10 41 -9 6 1 12 -3 12 -9 0 -7 8 -9 20 -5 12 4 20 2 20
-5 0 -7 7 -9 15 -6 9 3 18 -1 21 -9 3 -7 12 -11 19 -9 7 3 16 1 19 -5 4 -6 13
-8 21 -4 8 3 15 0 15 -7 0 -7 8 -9 20 -5 12 4 20 2 20 -5 0 -7 7 -9 15 -6 9 3
18 -1 21 -9 3 -7 12 -11 19 -9 7 3 16 1 19 -5 4 -6 13 -8 21 -4 8 3 15 0 15
-6 0 -7 6 -11 13 -10 6 1 26 -4 42 -11 17 -7 36 -12 43 -11 6 1 12 -3 12 -9 0
-7 8 -9 20 -5 12 4 20 2 20 -5 0 -6 6 -10 13 -9 6 1 26 -4 42 -11 17 -7 36
-12 43 -11 6 1 12 -3 12 -9 0 -7 8 -9 20 -5 12 4 20 2 20 -5 0 -7 7 -10 15 -6
8 3 15 1 15 -4 0 -6 9 -10 19 -10 11 0 22 -4 26 -10 3 -5 12 -7 20 -3 8 3 15
0 15 -7 0 -7 8 -9 20 -5 12 4 20 2 20 -5 0 -7 7 -10 15 -6 8 3 15 1 15 -5 0
-6 7 -9 15 -6 8 4 17 2 20 -3 4 -6 15 -10 26 -10 10 0 19 -4 19 -10 0 -5 6 -7
14 -4 8 3 17 1 20 -5 4 -6 13 -8 21 -4 8 3 15 0 15 -7 0 -7 7 -10 15 -7 8 4
17 2 20 -3 4 -6 15 -10 26 -10 10 0 19 -4 19 -10 0 -5 7 -7 15 -4 8 4 15 1 15
-6 0 -7 8 -9 20 -5 12 4 20 2 20 -5 0 -6 6 -10 13 -9 6 1 26 -4 42 -11 17 -7
36 -12 43 -11 6 1 12 -3 12 -9 0 -7 8 -9 20 -5 11 4 20 2 20 -4 0 -6 8 -11 18
-11 10 0 13 -3 6 -8 -5 -4 -10 -29 -9 -57 1 -27 -1 -54 -4 -60 -3 -5 -6 -33
-7 -60 0 -28 -2 -55 -5 -60 -3 -6 -5 -34 -4 -63 1 -28 -2 -52 -5 -52 -4 0 -6
-27 -5 -60 1 -35 -2 -60 -7 -60 -6 0 -6 -6 1 -14 7 -9 8 -17 2 -20 -5 -3 -8
-22 -7 -41 2 -20 -1 -38 -6 -41 -5 -3 -4 -11 2 -19 6 -7 7 -16 3 -18 -5 -3 -9
-31 -8 -61 0 -31 -3 -56 -6 -56 -4 0 -5 -27 -4 -60 1 -33 -1 -60 -5 -60 -3 0
-6 -24 -5 -53 1 -28 -2 -57 -7 -64 -5 -6 -5 -14 2 -18 6 -3 7 -12 3 -18 -4 -7
-8 -27 -8 -44 -1 -18 -4 -36 -8 -39 -4 -4 -2 -13 4 -21 8 -9 8 -13 1 -13 -6 0
-9 -16 -7 -40 2 -22 -1 -43 -7 -46 -6 -4 -5 -10 3 -15 10 -6 11 -11 3 -16 -5
-5 -10 -30 -9 -58 1 -27 -1 -54 -4 -60 -3 -5 -6 -33 -6 -60 -1 -28 -4 -55 -6
-61 -3 -5 -5 -33 -4 -62 1 -29 -2 -55 -7 -58 -5 -3 -4 -12 3 -20 7 -9 8 -14 1
-14 -6 0 -9 -16 -7 -40 2 -24 -1 -40 -7 -40 -7 0 -6 -5 1 -14 7 -8 8 -17 3
-20 -5 -3 -9 -31 -8 -62 1 -30 -1 -57 -4 -59 -3 -2 -6 -29 -5 -59 0 -31 -3
-56 -6 -56 -3 0 -5 -26 -4 -58 1 -32 -3 -60 -9 -64 -15 -10 -2 -20 17 -12 9 3
13 12 10 20 -3 8 1 14 11 14 9 0 16 7 16 15 0 8 5 15 10 15 6 0 10 6 10 14 0
8 7 17 16 20 8 3 12 10 9 16 -3 6 1 13 9 16 9 3 16 12 16 20 0 8 5 14 10 14 6
0 10 7 10 15 0 8 7 15 15 15 9 0 12 6 9 15 -4 9 0 15 10 15 9 0 16 7 16 15 0
8 5 15 10 15 6 0 10 6 10 14 0 8 7 17 16 20 8 3 13 10 10 15 -3 5 1 11 9 15 8
3 15 13 15 21 0 9 4 13 10 10 6 -3 10 3 10 14 0 12 7 21 16 21 8 0 12 5 9 10
-3 6 1 13 9 16 9 3 16 12 16 20 0 8 5 14 10 14 6 0 10 6 10 14 0 8 7 17 16 20
8 3 13 10 10 15 -3 5 1 11 9 15 8 3 15 13 15 21 0 9 5 13 10 10 6 -3 10 3 10
14 0 12 6 20 13 19 6 -2 11 3 9 10 -1 7 5 15 13 18 8 4 15 12 15 20 0 8 5 14
10 14 6 0 10 6 10 14 0 8 7 17 16 20 8 3 12 10 9 16 -3 5 1 10 9 10 9 0 16 7
16 15 0 8 5 15 10 15 6 0 10 9 10 20 0 11 6 19 13 18 6 -2 11 3 9 10 -1 7 5
15 13 18 8 4 15 12 15 20 0 8 5 14 10 14 6 0 10 7 10 15 0 8 5 15 10 15 6 0
10 7 10 15 0 8 7 15 15 15 8 0 15 7 15 15 0 8 5 15 10 15 6 0 10 6 10 14 0 8
7 17 16 20 8 3 12 10 9 16 -3 6 1 13 9 16 9 3 13 10 10 15 -3 5 2 12 10 15 9
3 16 12 16 20 0 8 5 14 10 14 6 0 10 7 10 15 0 8 7 15 15 15 8 0 15 7 15 15 0
8 5 15 10 15 6 0 10 6 10 14 0 8 7 17 16 20 8 3 13 10 10 15 -3 5 1 12 10 15
8 3 12 10 9 16 -3 6 1 13 9 16 9 3 16 12 16 20 0 8 5 14 10 14 6 0 10 7 10 15
0 8 7 15 15 15 8 0 15 7 15 15 0 8 5 15 10 15 6 0 10 6 10 14 0 8 7 17 16 20
8 3 13 10 10 15 -3 5 1 12 10 15 8 3 12 10 9 16 -3 6 1 13 9 16 9 3 16 12 16
20 0 8 7 14 15 14 9 0 12 6 9 15 -4 9 0 15 10 15 9 0 16 7 16 15 0 8 5 15 10
15 6 0 10 7 10 15 0 8 5 15 10 15 6 0 10 6 10 14 0 8 7 17 16 20 8 3 12 10 9
16 -3 5 1 10 9 10 9 0 16 9 16 20 0 11 6 19 13 18 6 -2 11 5 9 14 -2 11 3 18
13 18 8 0 15 7 15 15 0 8 5 15 10 15 6 0 10 7 10 15 0 8 5 15 10 15 6 0 10 6
10 14 0 8 7 17 16 20 8 3 12 10 9 16 -3 5 1 10 9 10 9 0 16 9 16 20 0 11 6 19
13 18 6 -2 11 3 9 10 -1 7 5 15 13 18 8 3 12 10 9 15 -3 5 2 12 10 15 9 3 16
12 16 20 0 8 5 14 10 14 6 0 10 7 10 15 0 8 7 15 16 15 10 0 14 6 10 15 -3 9
0 15 9 15 8 0 15 6 15 14 0 8 7 17 16 20 8 3 13 10 10 15 -3 5 1 12 10 15 8 3
12 10 9 16 -3 6 1 13 9 16 9 3 16 12 16 20 0 8 5 14 10 14 6 0 10 7 10 15 0 8
7 15 16 15 10 0 14 6 10 15 -3 9 0 15 9 15 8 0 15 7 15 15 0 8 5 15 10 15 6 0
10 6 10 14 0 8 7 17 16 20 8 3 12 10 9 16 -3 6 1 13 9 16 9 3 16 12 16 20 0 8
5 14 10 14 6 0 10 7 10 15 0 8 7 15 16 15 10 0 14 6 10 15 -3 9 0 15 9 15 8 0
15 7 15 15 0 8 5 15 10 15 6 0 10 6 10 14 0 8 7 17 16 20 8 3 12 10 9 16 -3 6
1 13 9 16 9 3 16 12 16 20 0 8 5 14 10 14 6 0 10 7 10 15 0 8 7 15 16 15 8 0
12 5 9 10 -3 6 1 13 9 16 9 3 16 12 16 20 0 8 5 14 10 14 6 0 10 6 10 14 0 8
7 17 16 20 8 3 12 10 9 16 -3 5 1 10 9 10 9 0 16 9 16 21 0 11 5 17 10 14 6
-3 10 3 10 14 0 12 7 21 16 21 8 0 12 5 9 10 -3 6 1 13 9 16 9 3 16 12 16 20
0 8 5 14 10 14 6 0 10 6 10 14 0 8 7 17 16 20 8 3 12 10 9 16 -3 5 1 10 9 10
9 0 16 9 16 21 0 11 5 17 10 14 6 -3 10 3 10 14 0 12 6 20 13 19 6 -2 11 3 9
10 -1 7 5 15 13 18 8 4 15 12 15 20 0 8 5 14 10 14 6 0 10 6 10 14 0 8 7 17
16 20 8 3 12 10 9 16 -3 5 1 10 9 10 9 0 16 7 16 15 0 8 5 15 10 15 6 0 10 6
10 14 0 8 7 17 16 20 8 3 12 10 9 16 -3 6 1 13 9 16 9 3 16 12 16 20 0 8 5 14
10 14 6 0 10 6 10 14 0 8 7 17 16 20 8 3 12 10 9 16 -3 5 1 10 9 10 9 0 16 7
16 15 0 8 5 15 10 15 6 0 10 6 10 14 0 8 7 17 16 20 8 3 12 10 9 16 -3 6 1 13
9 16 9 3 16 12 16 20 0 8 5 14 10 14 6 0 10 7 10 15 0 8 7 15 15 15 9 0 12 6
9 15 -4 9 0 15 10 15 9 0 16 7 16 15 0 8 5 15 10 15 6 0 10 6 10 14 0 8 7 17
16 20 8 3 13 10 10 15 -3 5 1 11 9 15 8 3 15 12 15 21 0 8 5 15 10 15 6 0 10
7 10 15 0 8 7 15 15 15 9 0 12 6 9 15 -4 9 0 15 10 15 9 0 16 7 16 15 0 8 5
15 10 15 6 0 10 6 10 14 0 8 7 17 16 20 8 3 13 10 10 15 -3 5 1 11 9 15 8 3
15 13 15 21 0 9 5 13 10 10 6 -3 10 3 10 14 0 12 7 21 16 21 8 0 12 5 9 10 -3
6 1 13 9 16 9 3 16 12 16 20 0 8 5 14 10 14 6 0 10 6 10 14 0 8 7 17 16 20 8
3 12 10 9 16 -3 5 1 10 9 10 9 0 16 7 16 15 0 8 5 15 10 15 6 0 10 9 10 20 0
11 6 19 13 18 6 -2 11 3 9 10 -1 7 5 15 13 18 8 4 15 12 15 20 0 8 5 14 10 14
6 0 10 7 10 15 0 8 5 15 10 15 6 0 10 7 10 15 0 8 7 15 15 15 8 0 15 7 15 15
0 8 5 15 10 15 6 0 10 6 10 14 0 8 7 17 16 20 8 3 12 10 9 16 -3 6 1 13 9 16
9 3 16 12 16 20 0 8 5 14 10 14 6 0 10 7 10 15 0 8 5 15 10 15 6 0 10 7 10 15
0 8 7 15 15 15 8 0 15 7 15 15 0 8 5 15 10 15 6 0 10 6 10 14 0 8 7 17 16 20
8 3 13 10 10 15 -3 5 1 12 10 15 8 3 12 10 9 16 -3 6 1 13 9 16 9 3 16 12 16
20 0 8 5 14 10 14 6 0 10 7 10 15 0 8 7 15 15 15 8 0 15 7 15 15 0 8 5 15 10
15 6 0 10 6 10 14 0 8 7 17 16 20 8 3 13 10 10 15 -3 5 1 12 10 15 8 3 12 10
9 16 -3 6 1 13 9 16 9 3 16 12 16 20 0 8 5 14 10 14 6 0 10 7 10 15 0 8 7 15
15 15 8 0 15 7 15 15 0 8 5 15 10 15 6 0 10 7 10 15 0 8 5 15 10 15 6 0 10 6
10 14 0 8 7 16 15 20 8 3 14 11 13 18 -2 7 3 12 10 10 6 -1 12 7 12 18 0 11 7
20 15 20 9 0 12 6 9 15 -4 9 0 15 10 15 9 0 16 7 16 15 0 8 5 15 10 15 6 0 10
7 10 15 0 8 5 15 10 15 6 0 10 6 10 14 0 8 7 17 16 20 8 3 12 10 9 16 -3 5 1
10 9 10 9 0 16 9 16 20 0 11 6 19 13 18 6 -2 11 5 9 15 -2 10 3 17 13 17 9 0
13 5 10 10 -3 6 1 13 9 16 9 3 16 12 16 20 0 8 5 14 10 14 6 0 10 6 10 14 0 8
7 17 16 20 8 3 12 10 9 16 -3 5 1 10 9 10 9 0 16 6 16 14 0 8 7 17 16 20 8 3
12 10 9 16 -3 6 1 13 9 16 9 3 13 10 10 15 -3 5 2 12 10 15 9 3 16 12 16 20 0
8 5 14 10 14 6 0 10 7 10 15 0 8 7 15 16 15 10 0 14 6 11 14 -6 15 29 30 38
15 3 -4 12 -6 20 -2 8 3 15 0 15 -6 0 -6 9 -11 20 -11 11 0 20 -5 20 -11 0 -6
7 -9 15 -5 8 3 15 1 15 -4 0 -6 9 -10 20 -10 11 0 20 -5 20 -11 0 -6 7 -9 15
-5 8 3 15 1 15 -4 0 -6 9 -10 20 -10 11 0 20 -5 20 -11 0 -6 9 -8 20 -4 11 3
20 2 20 -3 0 -10 37 -25 58 -23 6 1 12 -3 12 -9 0 -5 9 -10 20 -10 11 0 20 -5
20 -11 0 -6 7 -9 15 -5 8 3 15 1 15 -4 0 -6 9 -10 20 -10 11 0 20 -5 20 -11 0
-6 7 -9 15 -5 8 3 15 1 15 -4 0 -6 9 -10 20 -10 11 0 20 -5 20 -11 0 -6 9 -8
20 -4 11 3 20 2 20 -3 0 -10 37 -25 58 -23 6 1 12 -3 12 -9 0 -5 9 -10 20 -10
11 0 20 -4 20 -10 0 -5 7 -7 15 -4 8 4 15 1 15 -5 0 -6 9 -11 20 -11 11 0 20
-5 20 -11 0 -6 7 -9 15 -5 8 3 15 1 15 -4 0 -6 9 -10 20 -10 11 0 20 -5 20
-10 0 -6 6 -10 13 -9 6 1 26 -4 42 -11 17 -7 36 -12 43 -11 6 1 12 -3 12 -9 0
-5 9 -10 20 -10 11 0 20 -4 20 -10 0 -5 7 -7 15 -4 8 4 15 1 15 -5 0 -6 9 -11
20 -11 11 0 20 -5 20 -11 0 -6 7 -9 15 -5 8 3 15 1 15 -4 0 -6 9 -10 20 -10
11 0 20 -5 20 -10 0 -6 6 -10 13 -9 20 2 57 -13 57 -23 0 -5 9 -6 20 -3 11 3
20 2 20 -3 0 -10 37 -25 58 -23 6 1 12 -3 12 -9 0 -5 9 -10 20 -10 11 0 20 -5
20 -11 0 -6 7 -9 15 -5 8 3 15 1 15 -4 0 -6 9 -10 20 -10 11 0 20 -5 20 -10 0
-6 6 -10 13 -9 20 2 57 -13 57 -23 0 -5 9 -6 20 -3 11 3 20 2 20 -3 0 -10 37
-25 58 -23 6 1 12 -3 12 -9 0 -5 9 -10 20 -10 11 0 20 -5 20 -11 0 -6 6 -9 14
-6 8 3 17 -1 20 -8 3 -8 12 -12 21 -9 8 4 15 1 15 -6 0 -7 7 -10 15 -6 8 3 15
1 15 -4 0 -6 9 -10 20 -10 11 0 20 -5 20 -10 0 -6 6 -10 13 -9 6 1 26 -4 42
-11 17 -7 36 -12 43 -11 6 1 12 -3 12 -9 0 -5 9 -10 20 -10 11 0 20 -5 20 -11
0 -6 6 -9 14 -6 8 3 17 -1 20 -9 3 -9 10 -12 16 -9 6 3 17 -1 26 -10 9 -9 19
-13 23 -10 3 4 -3 13 -14 22 -11 8 -19 19 -17 24 1 5 -5 9 -13 9 -8 0 -15 9
-15 21 0 11 -4 17 -10 14 -5 -3 -10 3 -10 14 0 12 -7 21 -15 21 -9 0 -12 6 -9
15 4 9 0 15 -10 15 -9 0 -16 7 -16 15 0 8 -4 15 -10 15 -5 0 -10 7 -10 15 0 8
-4 15 -10 15 -5 0 -10 6 -10 14 0 8 -7 17 -16 20 -8 3 -12 10 -9 16 3 6 -1 13
-9 16 -9 3 -16 12 -16 20 0 8 -4 14 -10 14 -5 0 -10 7 -10 15 0 8 -4 15 -10
15 -5 0 -10 6 -10 14 0 8 -7 17 -16 20 -8 3 -12 10 -9 16 3 5 -1 10 -9 10 -9
0 -16 9 -16 20 0 11 -4 20 -10 20 -5 0 -10 7 -10 15 0 8 -7 15 -15 15 -9 0
-12 6 -9 15 4 9 0 15 -10 15 -9 0 -16 7 -16 15 0 8 -4 15 -10 15 -5 0 -10 7
-10 15 0 8 -4 15 -10 15 -5 0 -10 6 -10 14 0 8 -7 17 -16 20 -8 3 -12 10 -9
16 3 6 -1 13 -9 16 -9 3 -16 12 -16 20 0 8 -4 14 -10 14 -5 0 -10 7 -10 15 0
8 -4 15 -10 15 -5 0 -10 6 -10 14 0 8 -7 17 -16 20 -8 3 -12 10 -9 16 3 6 -1
13 -9 16 -9 3 -16 12 -16 20 0 8 -4 14 -10 14 -5 0 -10 7 -10 15 0 8 -7 15
-15 15 -9 0 -12 6 -9 15 4 9 0 15 -10 15 -9 0 -16 7 -16 15 0 8 -4 15 -10 15
-5 0 -10 7 -10 15 0 8 -4 15 -10 15 -5 0 -10 7 -10 15 0 9 -7 18 -15 21 -8 4
-12 10 -9 15 3 5 -2 12 -10 15 -9 3 -16 12 -16 20 0 8 -4 14 -10 14 -5 0 -10
6 -10 14 0 8 -7 17 -16 20 -8 3 -13 10 -10 15 3 5 -1 12 -10 15 -8 3 -12 10
-9 16 3 6 -1 13 -9 16 -9 3 -16 12 -16 20 0 8 -4 14 -10 14 -5 0 -10 7 -10 15
0 8 -7 15 -15 15 -9 0 -12 6 -9 15 4 9 0 15 -10 15 -9 0 -16 7 -16 15 0 8 -4
15 -10 15 -5 0 -10 9 -10 20 0 11 -6 19 -12 17 -7 -1 -12 4 -10 11 1 7 -5 15
-13 18 -8 3 -12 10 -9 15 3 5 -2 12 -10 15 -9 3 -16 12 -16 20 0 8 -4 14 -10
14 -5 0 -10 6 -10 14 0 8 -7 17 -16 20 -8 3 -12 10 -9 16 3 6 -1 13 -9 16 -9
3 -13 10 -10 15 3 5 -2 12 -10 15 -9 3 -16 12 -16 20 0 8 -4 14 -10 14 -5 0
-10 7 -10 15 0 8 -7 15 -16 15 -10 0 -14 6 -10 15 3 9 0 15 -9 15 -8 0 -15 9
-15 21 0 11 -4 17 -10 14 -5 -3 -10 3 -10 14 0 12 -7 21 -16 21 -8 0 -12 5 -9
10 3 6 -1 13 -9 16 -9 3 -16 12 -16 20 0 8 -4 14 -10 14 -5 0 -10 7 -10 15 0
8 -4 15 -10 15 -5 0 -10 6 -10 14 0 8 -7 17 -16 20 -8 3 -12 10 -9 16 3 6 -1
13 -9 16 -9 3 -13 10 -10 15 3 5 -2 12 -10 15 -9 3 -16 12 -16 20 0 8 -4 14
-10 14 -5 0 -10 7 -10 15 0 8 -7 15 -16 15 -10 0 -14 6 -10 15 3 9 0 15 -9 15
-8 0 -15 9 -15 21 0 11 -4 17 -10 14 -5 -3 -10 3 -10 14 0 12 -7 21 -16 21 -8
0 -12 5 -9 10 3 6 -1 13 -9 16 -9 3 -16 12 -16 20 0 8 -4 14 -10 14 -5 0 -10
7 -10 15 0 8 -4 15 -10 15 -5 0 -10 6 -10 14 0 8 -7 17 -16 20 -8 3 -12 10 -9
16 3 6 -1 13 -9 16 -9 3 -16 12 -16 20 0 8 -4 14 -10 14 -5 0 -10 7 -10 15 0
8 -4 15 -10 15 -5 0 -10 6 -10 14 0 8 -7 17 -16 20 -8 3 -12 10 -9 16 3 5 -1
10 -9 10 -9 0 -16 9 -16 20 0 11 -4 20 -10 20 -5 0 -10 7 -10 15 0 8 -7 15
-15 15 -9 0 -12 6 -9 15 4 9 0 15 -10 15 -9 0 -16 7 -16 15 0 8 -4 15 -10 15
-5 0 -10 7 -10 15 0 8 -4 15 -10 15 -5 0 -10 7 -10 15 0 9 -7 18 -15 21 -8 4
-12 10 -9 15 3 5 -2 12 -10 15 -9 3 -16 12 -16 20 0 8 -4 14 -10 14 -5 0 -10
7 -10 15 0 8 -4 15 -10 15 -5 0 -10 6 -10 14 0 8 -7 16 -15 20 -8 3 -14 11
-13 18 2 7 -3 12 -9 11 -7 -2 -13 6 -13 17 0 11 -4 20 -10 20 -5 0 -10 7 -10
15 0 8 -7 15 -15 15 -9 0 -12 6 -9 15 4 9 0 15 -10 15 -9 0 -16 7 -16 15 0 8
-4 15 -10 15 -5 0 -10 6 -10 14 0 8 -7 17 -16 20 -8 3 -12 10 -9 16 3 6 -1 13
-9 16 -9 3 -13 10 -10 15 3 5 -2 12 -10 15 -9 3 -16 12 -16 20 0 8 -4 14 -10
14 -5 0 -10 6 -10 14 0 8 -7 17 -16 20 -8 3 -13 10 -10 15 3 5 -1 12 -10 15
-8 3 -12 10 -9 16 3 6 -1 13 -9 16 -9 3 -16 12 -16 20 0 8 -4 14 -10 14 -5 0
-10 7 -10 15 0 8 -7 15 -15 15 -9 0 -12 6 -9 15 4 9 0 15 -10 15 -9 0 -16 7
-16 15 0 8 -4 15 -10 15 -5 0 -10 6 -10 14 0 8 -7 17 -16 20 -8 3 -12 10 -9
16 3 6 -1 13 -9 16 -9 3 -13 10 -10 15 3 5 -2 12 -10 15 -9 3 -16 12 -16 20 0
8 -4 14 -10 14 -5 0 -10 6 -10 14 0 8 -7 17 -16 20 -8 3 -12 10 -9 16 3 6 -1
13 -9 16 -9 3 -13 10 -10 15 3 5 -2 12 -10 15 -9 3 -16 12 -16 20 0 8 -4 14
-10 14 -5 0 -10 7 -10 15 0 8 -7 15 -16 15 -10 0 -14 6 -10 15 3 9 0 15 -9 15
-8 0 -15 9 -15 21 0 11 -4 17 -10 14 -5 -3 -10 3 -10 14 0 12 -7 21 -16 21 -8
0 -12 5 -9 10 3 6 -1 13 -9 16 -9 3 -16 12 -16 20 0 8 -4 14 -10 14 -5 0 -10
7 -10 15 0 8 -4 15 -10 15 -5 0 -10 6 -10 14 0 8 -7 17 -16 20 -8 3 -12 10 -9
16 3 6 -1 13 -9 16 -9 3 -16 12 -16 20 0 8 -4 14 -10 14 -5 0 -10 7 -10 15 0
8 -4 15 -10 15 -5 0 -10 7 -10 15 0 8 -7 15 -16 15 -10 0 -14 6 -10 15 3 9 0
15 -9 15 -8 0 -15 9 -15 21 0 11 -4 17 -10 14 -5 -3 -10 3 -10 14 0 12 -7 21
-16 21 -8 0 -12 5 -9 10 3 6 -1 13 -9 16 -9 3 -16 12 -16 20 0 8 -4 14 -10 14
-5 0 -10 7 -10 15 0 8 -4 15 -10 15 -5 0 -10 6 -10 14 0 8 -7 17 -16 20 -8 3
-12 10 -9 16 3 6 -1 13 -9 16 -9 3 -16 12 -16 20 0 8 -4 14 -10 14 -5 0 -10 7
-10 15 0 8 -4 15 -10 15 -5 0 -10 7 -10 15 0 8 -7 15 -16 15 -10 0 -14 6 -10
15 3 9 0 15 -9 15 -8 0 -15 9 -15 20 0 11 -4 20 -10 20 -5 0 -10 7 -10 15 0 8
-7 15 -16 15 -8 0 -12 5 -9 10 3 6 -1 13 -9 16 -9 3 -16 12 -16 20 0 8 -4 14
-10 14 -5 0 -10 7 -10 15 0 8 -4 15 -10 15 -5 0 -10 7 -10 15 0 9 -7 18 -15
21 -8 4 -12 10 -9 15 3 5 -2 12 -10 15 -9 3 -16 12 -16 20 0 8 -4 14 -10 14
-5 0 -10 7 -10 15 0 8 -4 15 -10 15 -5 0 -10 6 -10 14 0 8 -7 16 -15 20 -8 3
-14 11 -13 18 2 7 -3 12 -9 10 -7 -1 -13 7 -13 18 0 11 -4 20 -10 20 -5 0 -10
7 -10 15 0 8 -7 15 -15 15 -9 0 -12 6 -9 15 4 9 0 15 -10 15 -9 0 -16 7 -16
15 0 8 -4 15 -10 15 -5 0 -10 6 -10 14 0 8 -7 17 -16 20 -8 3 -12 10 -9 16 3
6 -1 13 -9 16 -9 3 -13 10 -10 15 3 5 -2 12 -10 15 -9 3 -16 12 -16 20 0 8 -4
14 -10 14 -5 0 -10 6 -10 14 0 8 -7 17 -16 20 -8 3 -13 10 -10 15 3 5 -1 12
-10 15 -8 3 -12 10 -9 16 3 6 -1 13 -9 16 -9 3 -16 12 -16 20 0 8 -4 14 -10
14 -5 0 -10 7 -10 15 0 8 -7 15 -16 15 -10 0 -14 6 -10 15 3 9 0 15 -9 15 -8
0 -15 7 -15 15 0 8 -4 15 -10 15 -5 0 -10 6 -10 14 0 8 -7 17 -16 20 -8 3 -12
10 -9 16 3 6 -1 13 -9 16 -9 3 -13 10 -10 15 3 5 -2 12 -10 15 -9 3 -16 12
-16 20 0 8 -4 14 -10 14 -5 0 -10 6 -10 14 0 8 -7 17 -16 20 -8 3 -12 10 -9
16 3 6 -1 13 -9 16 -9 3 -13 10 -10 15 3 5 -2 12 -10 15 -9 3 -16 12 -16 20 0
8 -4 14 -10 14 -5 0 -10 7 -10 15 0 8 -7 15 -16 15 -10 0 -14 6 -10 15 3 9 0
15 -9 15 -8 0 -15 7 -15 15 0 8 -4 15 -10 15 -5 0 -10 9 -10 20 0 11 -7 20
-16 20 -8 0 -12 5 -9 10 3 6 -1 13 -9 16 -9 3 -16 12 -16 19 0 7 -6 16 -12 18
-10 4 -10 6 0 6 6 1 12 8 12 16 0 8 5 15 10 15 6 0 10 7 10 15 0 8 7 15 15 15
8 0 15 7 15 15 0 8 5 15 10 15 6 0 10 7 10 15 0 8 7 15 15 15 8 0 15 7 15 15
0 8 5 15 10 15 6 0 10 7 10 15 0 8 7 15 15 15 8 0 15 5 15 11 0 7 11 22 25 35
14 13 25 28 25 34 0 5 7 10 15 10 8 0 15 7 15 15 0 8 5 15 10 15 6 0 10 7 10
15 0 8 7 15 15 15 8 0 15 7 15 15 0 8 5 15 10 15 6 0 10 7 10 15 0 8 7 15 15
15 8 0 15 5 15 11 0 7 11 22 25 35 14 13 25 28 25 34 0 5 7 10 16 10 8 0 12 5
9 10 -3 6 1 13 9 16 9 3 16 12 16 20 0 8 7 14 16 14 8 0 12 5 9 10 -3 6 1 13
9 16 9 3 16 12 16 20 0 8 7 14 16 14 8 0 12 5 9 10 -3 6 1 13 9 16 9 3 16 12
16 20 0 8 7 14 15 14 8 0 15 7 15 16 0 8 5 12 10 9 6 -3 10 1 10 10 0 8 7 18
15 21 8 4 15 12 15 20 0 8 6 13 13 11 6 -1 11 4 9 11 -1 7 5 15 13 18 8 4 15
12 15 20 0 8 5 13 12 11 7 -1 13 5 13 13 1 8 6 14 13 13 7 -2 12 3 12 11 0 8
7 16 15 20 8 3 14 11 13 18 -2 7 3 12 10 11 6 -2 12 3 12 11 0 8 7 17 16 20 8
3 12 10 9 16 -3 5 1 10 9 10 9 0 16 5 16 10 0 6 11 21 25 34 14 13 25 28 25
35 0 6 7 11 15 11 8 0 15 6 15 14 0 8 7 17 16 20 8 3 12 10 9 16 -3 5 1 10 9
10 9 0 16 6 16 14 0 8 7 17 16 20 8 3 12 10 9 16 -3 5 1 10 9 10 9 0 16 6 16
14 0 8 7 17 16 20 8 3 12 10 9 16 -3 5 1 10 9 10 9 0 16 5 16 10 0 6 11 21 25
34 14 13 25 28 25 35 0 6 7 11 15 11 8 0 15 7 15 15 0 8 5 15 10 15 6 0 10 7
10 15 0 8 7 15 15 15 8 0 15 7 15 15 0 8 5 15 10 15 6 0 10 7 10 15 0 8 7 15
15 15 8 0 15 7 15 15 0 8 5 15 10 15 6 0 10 7 10 15 0 8 7 15 15 15 8 0 15 7
15 15 0 8 7 15 15 15 8 0 15 7 15 15 0 8 5 15 10 15 6 0 10 7 10 15 0 8 7 15
15 15 8 0 15 7 15 15 0 8 5 15 10 15 6 0 10 7 10 15 0 8 -4 15 -10 15 -5 0
-10 -5 -10 -11z m-1978 -2197 c-6 -2 -22 -21 -34 -43 -12 -21 -26 -39 -30 -39
-5 0 -6 -4 -3 -10 3 -5 2 -10 -2 -10 -5 0 -22 -22 -38 -50 -16 -27 -32 -50
-35 -50 -3 0 -19 -22 -35 -50 -16 -27 -33 -50 -38 -50 -4 0 -5 -4 -2 -10 3 -5
2 -10 -3 -10 -4 0 -18 -18 -31 -40 -12 -22 -28 -45 -35 -53 -7 -7 -25 -32 -41
-56 -15 -25 -32 -49 -37 -55 -13 -16 -72 -104 -105 -156 -15 -25 -32 -49 -39
-55 -6 -5 -22 -28 -35 -50 -13 -22 -29 -46 -36 -53 -8 -8 -20 -27 -29 -43 -12
-24 -12 -32 -2 -44 7 -7 38 -41 68 -75 30 -34 71 -79 90 -100 19 -21 55 -62
80 -90 25 -28 59 -66 75 -85 17 -18 50 -56 75 -85 25 -28 61 -68 80 -89 19
-21 60 -66 90 -100 30 -35 71 -80 90 -101 19 -21 53 -60 75 -85 22 -26 56 -64
75 -85 19 -21 60 -66 90 -101 30 -34 71 -79 90 -100 19 -21 55 -61 80 -89 25
-29 59 -67 75 -85 17 -19 50 -57 75 -85 25 -28 61 -68 80 -89 19 -21 60 -66
90 -100 30 -35 71 -80 90 -101 19 -21 53 -60 75 -85 22 -26 56 -64 75 -85 19
-21 60 -66 90 -101 30 -34 71 -79 90 -100 19 -21 53 -59 75 -84 22 -26 56 -64
75 -85 19 -21 55 -62 80 -90 25 -28 59 -66 75 -84 17 -19 57 -64 90 -101 33
-37 69 -76 79 -86 21 -20 20 -20 -46 -3 -13 3 -29 6 -35 6 -7 1 -13 4 -13 8 0
4 -6 7 -12 8 -18 1 -37 6 -173 47 -103 32 -194 59 -230 69 -5 1 -30 9 -55 16
-61 18 -85 24 -130 34 -11 3 -25 8 -30 11 -5 3 -20 8 -32 11 -13 3 -27 6 -33
8 -13 3 -177 53 -231 70 l-40 13 -29 -53 c-16 -30 -33 -54 -38 -54 -4 0 -6 -4
-3 -9 4 -5 2 -11 -3 -13 -6 -1 -65 -100 -132 -218 -67 -118 -125 -217 -130
-218 -5 -2 -7 -8 -3 -13 3 -5 0 -9 -7 -9 -7 0 -10 -3 -6 -6 3 -3 -1 -13 -9
-22 -8 -10 -14 -21 -13 -26 0 -5 -4 -12 -9 -15 -5 -3 -58 -91 -117 -196 -60
-104 -113 -193 -119 -197 -6 -4 -7 -8 -3 -8 5 0 1 -7 -7 -16 -9 -8 -16 -22
-16 -30 0 -8 -5 -14 -11 -14 -5 0 -8 -4 -5 -9 4 -5 2 -11 -3 -13 -5 -1 -58
-88 -117 -193 -59 -104 -111 -192 -116 -193 -4 -2 -6 -8 -2 -13 3 -5 0 -9 -5
-9 -6 0 -11 -7 -11 -15 0 -8 -5 -15 -11 -15 -5 0 -7 -4 -4 -10 3 -5 1 -10 -5
-10 -6 0 -9 -4 -6 -9 4 -5 2 -11 -3 -13 -6 -1 -65 -100 -132 -218 -67 -118
-127 -218 -133 -222 -6 -4 -7 -8 -1 -8 6 0 5 -4 -1 -8 -6 -4 -66 -104 -134
-222 -67 -118 -126 -217 -131 -218 -5 -2 -7 -8 -3 -13 3 -5 0 -9 -6 -9 -6 0
-8 -4 -5 -10 3 -5 2 -10 -3 -10 -4 0 -62 -94 -127 -210 -65 -115 -121 -207
-125 -205 -6 4 -10 85 -15 325 -5 234 -22 770 -24 781 0 3 -11 5 -23 6 -13 1
-33 4 -45 7 -36 10 -66 17 -90 22 -13 2 -33 6 -45 8 -13 3 -33 7 -45 10 -22 6
-33 8 -93 21 -14 3 -36 8 -50 11 -14 3 -36 7 -50 10 -14 3 -41 9 -60 14 -19 5
-51 12 -70 15 -19 3 -60 12 -90 20 -30 8 -71 17 -90 20 -19 3 -51 10 -71 15
-20 6 -58 14 -85 20 -27 5 -89 18 -139 29 -321 70 -573 125 -670 146 -25 5
-62 13 -95 20 -14 3 -35 8 -47 10 -13 3 -33 7 -45 10 -13 2 -34 7 -48 10 -60
13 -71 15 -92 21 -13 3 -34 7 -48 10 -65 13 -72 14 -132 30 -13 3 -34 7 -48 9
-14 2 -35 6 -47 9 -13 3 -33 9 -45 12 -13 3 -34 7 -48 9 -14 2 -35 6 -47 9
-13 3 -32 8 -43 11 -11 3 -30 8 -42 11 -13 3 -34 7 -48 9 -14 2 -35 6 -47 9
-61 16 -68 17 -133 30 -14 3 -35 7 -47 10 -13 4 -33 8 -45 12 -22 5 -36 8 -88
18 -14 3 -35 7 -47 10 -22 6 -33 8 -93 21 -14 3 -35 8 -47 10 -13 3 -33 7 -45
10 -13 2 -44 9 -69 15 -60 15 -80 18 -104 20 -15 1 -12 5 15 19 19 11 38 17
42 14 5 -2 8 0 8 5 0 5 7 9 15 10 8 1 22 3 30 4 8 1 15 5 15 10 0 4 3 7 8 6
12 -2 65 14 120 38 28 13 52 21 52 18 0 -2 13 2 29 10 16 9 31 12 35 9 3 -4 6
0 6 7 0 7 3 10 6 7 4 -3 15 -2 26 4 11 6 27 12 36 14 21 5 108 36 182 65 30
12 63 23 73 25 9 2 22 7 27 10 5 3 18 8 27 10 26 6 147 51 172 64 12 7 21 9
21 6 0 -3 13 1 30 10 16 8 32 15 35 15 3 0 10 0 15 0 6 0 8 20 4 53 -7 62 -11
98 -18 192 -3 39 -8 86 -11 105 -6 50 -21 193 -29 290 -5 53 -14 147 -21 210
-14 123 -20 187 -29 295 -3 39 -8 86 -11 105 -7 51 -20 181 -30 295 -2 28 -6
68 -8 90 -3 22 -8 74 -12 115 -3 41 -9 93 -12 115 -3 22 -7 60 -9 85 -2 25 -5
65 -8 90 -11 120 -28 289 -32 325 -3 22 -7 58 -9 80 -2 22 -6 67 -9 100 -3 33
-9 87 -12 120 -3 33 -8 80 -11 104 -3 25 -7 64 -9 88 -2 24 -6 62 -8 86 -2 23
-7 69 -10 102 -6 69 -15 150 -22 215 -3 25 -7 69 -9 98 -2 29 -7 57 -10 62 -4
6 1 10 9 10 9 0 16 -4 16 -9 0 -4 10 -19 23 -32 12 -14 30 -37 40 -53 20 -29
43 -59 67 -85 8 -9 23 -29 33 -44 20 -30 43 -60 67 -86 8 -9 23 -29 33 -44 20
-31 39 -55 75 -95 12 -14 22 -28 22 -32 0 -3 8 -15 18 -26 9 -10 37 -46 62
-79 25 -33 50 -65 55 -71 6 -6 21 -26 35 -44 14 -19 33 -42 43 -52 9 -10 14
-18 11 -18 -3 0 1 -6 8 -14 7 -7 26 -29 41 -49 28 -36 29 -36 58 -22 16 9 29
13 29 10 0 -3 19 5 43 17 23 12 45 21 50 20 4 -1 7 3 7 10 0 6 3 9 6 6 3 -4
52 16 110 42 57 27 104 47 104 44 0 -3 25 8 55 25 30 17 55 29 55 27 0 -3 47
17 105 44 58 27 105 47 105 44 0 -3 25 8 55 25 30 17 56 30 58 29 4 -4 206 85
268 118 25 13 49 21 53 17 3 -3 6 0 6 7 0 7 3 11 6 8 3 -4 69 23 147 59 78 36
148 66 155 66 6 0 12 3 12 7 0 4 6 7 13 7 6 0 73 29 147 63 74 34 141 63 148
63 6 0 12 3 12 7 0 4 6 7 13 7 6 0 73 29 147 63 74 34 141 63 148 63 6 0 12 5
12 10 0 6 3 8 6 5 3 -3 77 27 165 67 87 41 159 72 159 69 0 -2 22 7 50 21 27
14 51 25 52 24 2 0 51 22 111 50 59 27 107 48 107 45 0 -2 22 7 50 21 27 14
51 25 52 24 2 0 51 22 110 49 58 28 109 48 112 44 3 -3 6 0 6 7 0 7 4 10 8 7
5 -3 22 3 38 13 16 10 33 16 39 13 5 -3 4 -7 -3 -10z"/>
</g>
</svg>
